<?xml version="1.0" encoding="UTF-8" standalone="no"?>
<svg
   xmlns:dc="http://purl.org/dc/elements/1.1/"
   xmlns:cc="http://creativecommons.org/ns#"
   xmlns:rdf="http://www.w3.org/1999/02/22-rdf-syntax-ns#"
   xmlns:svg="http://www.w3.org/2000/svg"
   xmlns="http://www.w3.org/2000/svg"
   xmlns:sodipodi="http://sodipodi.sourceforge.net/DTD/sodipodi-0.dtd"
   xmlns:inkscape="http://www.inkscape.org/namespaces/inkscape"
   inkscape:export-ydpi="300"
   inkscape:export-xdpi="300"
   inkscape:export-filename="G:\Code\Git\peloton-to-garmin\images\logo\github_1280x640.png"
   width="156.63333mm"
   height="156.63333mm"
   viewBox="0 0 156.63333 156.63333"
   version="1.1"
   id="svg8"
   inkscape:version="1.0 (4035a4fb49, 2020-05-01)"
   sodipodi:docname="p2g_penpot.svg">
  <defs
     id="defs2">
    <linearGradient
       id="linearGradient2861"
       y2="22.6"
       gradientUnits="userSpaceOnUse"
       x2="15.373"
       gradientTransform="matrix(0.25251039,0,0,0.25251039,22.712061,154.6754)"
       y1="5.0472002"
       x1="15.373">
      <stop
         id="stop3535"
         style="stop-color:#93b9dd"
         offset="0" />
      <stop
         id="stop3545"
         style="stop-color:#6396cd"
         offset="1" />
    </linearGradient>
    <linearGradient
       id="linearGradient4873">
      <stop
         id="stop4875"
         style="stop-color:white"
         offset="0" />
      <stop
         id="stop4877"
         style="stop-color:white;stop-opacity:0"
         offset="1" />
    </linearGradient>
  </defs>
  <sodipodi:namedview
     id="base"
     pagecolor="#ffffff"
     bordercolor="#666666"
     borderopacity="1.0"
     inkscape:pageopacity="0.0"
     inkscape:pageshadow="2"
     inkscape:zoom="0.25000001"
     inkscape:cx="197.07015"
     inkscape:cy="1497.5599"
     inkscape:document-units="mm"
     inkscape:current-layer="layer1"
     inkscape:document-rotation="0"
     showgrid="false"
     inkscape:window-width="2005"
     inkscape:window-height="1147"
     inkscape:window-x="517"
     inkscape:window-y="126"
     inkscape:window-maximized="0" />
  <metadata
     id="metadata5">
    <rdf:RDF>
      <cc:Work
         rdf:about="">
        <dc:format>image/svg+xml</dc:format>
        <dc:type
           rdf:resource="http://purl.org/dc/dcmitype/StillImage" />
        <dc:title></dc:title>
      </cc:Work>
    </rdf:RDF>
  </metadata>
  <g
     inkscape:label="Layer 1"
     inkscape:groupmode="layer"
     id="layer1"
     transform="translate(-27.799285,-462.76074)">
    <text
       xml:space="preserve"
       style="font-style:normal;font-weight:normal;font-size:13.9201px;line-height:1.25;font-family:sans-serif;fill:#ff2f1e;fill-opacity:1;stroke:none;stroke-width:0.348003"
       x="113.78497"
       y="178.15776"
       id="text1864"><tspan
         sodipodi:role="line"
         id="tspan1862"
         x="113.78497"
         y="178.15776"
         style="font-style:normal;font-variant:normal;font-weight:normal;font-stretch:normal;font-family:Magneto;-inkscape-font-specification:Magneto;fill:#ff2f1e;fill-opacity:1;stroke-width:0.348003" /></text>
    <path
       d="m 181.95391,541.13577 a 75.670833,75.670833 0 0 1 -75.67084,75.67083 75.670833,75.670833 0 0 1 -75.670834,-75.67083 75.670833,75.670833 0 0 1 75.670834,-75.67084 75.670833,75.670833 0 0 1 75.67084,75.67084"
       style="fill:#eaac8b;fill-opacity:1;stroke-width:7.67108"
       id="circle982" />
    <g
       inkscape:export-ydpi="300"
       inkscape:export-xdpi="300"
       id="g996"
       transform="matrix(6.6768411,0,0,6.6768411,-578.15152,-670.40994)"
       style="fill:#808080">
      <g
         style="font-style:normal;font-weight:normal;font-size:13.9201px;line-height:1.25;font-family:sans-serif;fill:#808080;fill-opacity:1;stroke:none;stroke-width:0.348003"
         id="text986"
         aria-label="P">
        <path
           id="path1231"
           style="font-style:normal;font-variant:normal;font-weight:normal;font-stretch:normal;font-family:Magneto;-inkscape-font-specification:Magneto;fill:#808080;fill-opacity:1;stroke-width:0.348003"
           d="m 106.98194,175.87842 q 0,2.01189 -2.77994,3.45284 -1.85556,0.97196 -4.418001,1.47493 l -0.829224,2.36533 h -2.480877 l 2.480877,-6.97364 h 2.460485 l -1.16907,3.26932 q 1.3186,-0.29906 2.33814,-0.93118 1.42056,-0.8904 1.47493,-2.07306 0.034,-0.76126 -0.50976,-0.99915 -0.32626,-0.14273 -1.17587,-0.14273 h -6.946459 l 1.06032,-1.71283 h 7.000829 q 1.53611,0 2.34494,0.38063 1.14868,0.53696 1.14868,1.88954 z" />
      </g>
      <g
         style="font-style:normal;font-weight:normal;font-size:13.9201px;line-height:1.25;font-family:sans-serif;fill:#808080;fill-opacity:1;stroke:none;stroke-width:0.348003"
         id="text990"
         aria-label="G">
        <path
           id="path1234"
           style="font-style:normal;font-variant:normal;font-weight:normal;font-stretch:normal;font-family:Magneto;-inkscape-font-specification:Magneto;fill:#808080;fill-opacity:1;stroke-width:0.348003"
           d="m 110.04979,181.24253 q 0,0.70688 -0.56415,1.17587 -0.53016,0.4486 -1.25063,0.4486 -0.71368,0 -1.25064,-0.4486 -0.55734,-0.46899 -0.55734,-1.17587 0,-0.2175 0.068,-0.47578 h -0.14953 q -1.63806,0 -2.93627,1.48173 -1.25743,1.42735 -1.25743,3.0858 0,1.39337 1.03993,2.11384 0.89719,0.62532 2.35853,0.62532 l 1.26423,-3.5344 h 2.53525 q -0.55735,1.61087 -1.68563,4.81902 -0.53696,1.51571 -2.56924,1.51571 -0.23789,0 -0.54376,-0.0136 l 0.62532,-1.69923 q -2.36533,0 -3.85385,-0.68649 -2.025488,-0.93798 -2.025488,-3.01783 0,-1.15548 0.713678,-2.35174 0.99915,-1.67884 2.88189,-2.62361 1.774,-0.8836 3.82667,-0.8836 h 1.51572 q 0.70688,0 1.24383,0.46899 0.57095,0.48258 0.57095,1.17586 z" />
      </g>
      <g
         style="font-style:normal;font-weight:normal;font-size:3.96808px;line-height:1.25;font-family:sans-serif;fill:#808080;fill-opacity:1;stroke:none;stroke-width:0.0992023"
         id="text994"
         aria-label="2">
        <path
           id="path1237"
           style="font-style:normal;font-variant:normal;font-weight:normal;font-stretch:normal;font-family:Magneto;-inkscape-font-specification:Magneto;fill:#808080;fill-opacity:1;stroke-width:0.0992023"
           d="m 103.72165,179.77009 q 0,0.5212 -0.53088,0.96877 -0.44757,0.37782 -1.01915,0.53089 h 1.32528 l -0.19957,0.56382 h -2.02279 l 0.16663,-0.5522 q 0.43401,-0.17631 0.88933,-0.57157 0.54639,-0.4747 0.54639,-0.84089 0,-0.37976 -0.29257,-0.37976 h -0.0252 q 0.01,0.0542 0.01,0.0833 0,0.19763 -0.16082,0.33326 -0.15113,0.12982 -0.35651,0.12982 -0.2015,0 -0.35263,-0.12982 -0.15888,-0.13563 -0.15888,-0.33326 0,-0.32356 0.30226,-0.43594 0.20344,-0.0775 0.68201,-0.0775 0.49989,0 0.74014,0.0833 0.45726,0.15694 0.45726,0.62776 z" />
      </g>
    </g>
    <g
       transform="matrix(2.2343748,0,0,2.2343748,-269.52887,-1229.5838)"
       style="font-style:normal;font-weight:normal;font-size:41.5966px;line-height:1.25;font-family:sans-serif;fill:#b56576;fill-opacity:1;stroke:none;stroke-width:1.03992"
       id="text1000"
       aria-label="P">
      <path
         id="path1224"
         style="font-style:normal;font-variant:normal;font-weight:normal;font-stretch:normal;font-family:Magneto;-inkscape-font-specification:Magneto;fill:#b56576;fill-opacity:1;stroke-width:1.03992"
         d="m 180.87609,774.91069 q 0,6.01201 -8.30713,10.31791 -5.54486,2.90445 -13.20205,4.40745 l -2.47792,7.06817 h -7.41346 l 7.41346,-20.83892 h 7.35252 l -3.49346,9.76952 q 3.9403,-0.89368 6.98693,-2.78259 4.24496,-2.66072 4.40745,-6.19481 0.10155,-2.27481 -1.52331,-2.98569 -0.97492,-0.42653 -3.51378,-0.42653 h -20.75768 l 3.16849,-5.11833 h 20.92017 q 4.59025,0 7.00724,1.13741 3.43253,1.60456 3.43253,5.64641 z" />
    </g>
    <g
       transform="matrix(2.2343748,0,0,2.2343748,-269.52887,-1229.5838)"
       style="font-style:normal;font-weight:normal;font-size:41.5966px;line-height:1.25;font-family:sans-serif;fill:#355070;fill-opacity:1;stroke:none;stroke-width:1.03992"
       id="text1004"
       aria-label="G">
      <path
         id="path1227"
         style="font-style:normal;font-variant:normal;font-weight:normal;font-stretch:normal;font-family:Magneto;-inkscape-font-specification:Magneto;fill:#355070;fill-opacity:1;stroke-width:1.03992"
         d="m 190.04353,790.93992 q 0,2.11233 -1.6858,3.51378 -1.58425,1.34051 -3.73719,1.34051 -2.13264,0 -3.7372,-1.34051 -1.66549,-1.40145 -1.66549,-3.51378 0,-0.64994 0.20311,-1.42176 h -0.44684 q -4.89491,0 -8.77428,4.42777 -3.75751,4.26527 -3.75751,9.22112 0,4.16372 3.10756,6.31667 2.68103,1.8686 7.04786,1.8686 l 3.77782,-10.56164 h 7.57594 q -1.66549,4.81367 -5.03709,14.40039 -1.60455,4.52931 -7.67749,4.52931 -0.71088,0 -1.62487,-0.0406 l 1.8686,-5.07771 q -7.06817,0 -11.51625,-2.05139 -6.05263,-2.8029 -6.05263,-9.01802 0,-3.45284 2.13264,-7.02755 2.98569,-5.01677 8.6118,-7.83998 5.30112,-2.64041 11.435,-2.64041 h 4.52932 q 2.11232,0 3.71688,1.40145 1.70611,1.44207 1.70611,3.51377 z" />
    </g>
    <g
       transform="matrix(2.2343748,0,0,2.2343748,-269.52887,-1229.5838)"
       style="font-style:normal;font-weight:normal;font-size:11.8576px;line-height:1.25;font-family:sans-serif;fill:#f6f6f6;fill-opacity:1;stroke:none;stroke-width:0.29644"
       id="text1008"
       aria-label="2">
      <path
         id="path1240"
         style="font-style:normal;font-variant:normal;font-weight:normal;font-stretch:normal;font-family:Magneto;-inkscape-font-specification:Magneto;fill:#f6f6f6;fill-opacity:1;stroke-width:0.29644"
         d="m 171.13356,786.53993 q 0,1.55747 -1.58641,2.89492 -1.33746,1.12902 -3.04546,1.58642 h 3.96025 l -0.59635,1.68485 h -6.0446 l 0.49793,-1.65011 q 1.29692,-0.52688 2.65754,-1.708 1.63273,-1.41852 1.63273,-2.5128 0,-1.13481 -0.87426,-1.13481 h -0.0753 q 0.029,0.16212 0.029,0.24897 0,0.59056 -0.48056,0.99585 -0.45161,0.38792 -1.06533,0.38792 -0.60215,0 -1.05375,-0.38792 -0.47477,-0.40529 -0.47477,-0.99585 0,-0.96691 0.90322,-1.30272 0.60793,-0.23159 2.03802,-0.23159 1.49378,0 2.21172,0.24896 1.3664,0.46898 1.3664,1.87591 z" />
    </g>
  </g>
</svg>
